<svg width="706.471923828125px" height="121.39999999999999px" xmlns="http://www.w3.org/2000/svg" viewBox="-103.2359619140625 14.300000000000004 706.471923828125 121.39999999999999" style="background: rgba(0, 0, 0, 0);" preserveAspectRatio="xMidYMid"><defs><filter id="editing-raise" x="-100%" y="-100%" width="300%" height="300%"><feFlood flood-color="#286090" result="flood-surface"></feFlood><feFlood flood-color="lightgrey" result="flood-extrude"></feFlood><feMorphology operator="erode" in="SourceAlpha" radius="1" result="erode"></feMorphology><feConvolveMatrix in="erode" result="shadow" order="11,8" divisor="1" kernelMatrix="0 0 0 1 1 1 1 1 0 0 0 0 0 1 0 0 0 0 0 1 0 0 0 0 1 0 0 0 0 0 1 0 0 0 0 1 0 0 0 0 0 1 0 0 0 0 1 0 0 0 0 0 1 0 0 0 0 0 1 0 0 0 1 0 0 0 0 0 0 1 1 0 1 1 0 0 0 0 0 0 0 0 1 0 0 0 0 0"></feConvolveMatrix><feOffset dx="0" dy="4" in="shadow" result="offset"></feOffset><feGaussianBlur in="offset" stdDeviation="0.2" result="blur"></feGaussianBlur><feComposite operator="in" in="flood-extrude" in2="blur" result="extrude"></feComposite><feMorphology operator="erode" in="SourceAlpha" radius="1" result="erode2"></feMorphology><feConvolveMatrix in="erode2" result="out" order="4,4" divisor="1" kernelMatrix="0 1 1 0 1 0 0 1 1 0 0 1 0 1 1 0 "></feConvolveMatrix><feComposite operator="in" in="flood-surface" in2="out" result="text"></feComposite><feMerge><feMergeNode in="extrude"></feMergeNode><feMergeNode in="text"></feMergeNode></feMerge></filter></defs><g filter="url(#editing-raise)"><g transform="translate(-2.123157888650894, 98.68000030517578)"><path d="M24.96-4.80L24.96-4.80L24.96-4.80Q24.96-9.28 26.75-18.24L26.75-18.24L17.28-18.24L13.76 0L0.38 0L8.51-42.24L22.02-42.24L18.30-23.36L27.78-23.36L31.30-42.24L44.80-42.24L44.80-42.24Q43.90-37.50 42.75-32.19L42.75-32.19L40.58-21.76L40.58-21.76Q38.14-9.60 38.14-4.29L38.14-4.29L38.14-4.29Q38.14-2.11 38.85-0.90L38.85-0.90L38.85-0.90Q35.65 1.28 31.90 1.28L31.90 1.28L31.90 1.28Q28.16 1.28 26.56-0.51L26.56-0.51L26.56-0.51Q24.96-2.30 24.96-4.80ZM72.26-10.82L72.26-10.82L72.26-10.82Q73.86-9.73 73.86-7.33L73.86-7.33L73.86-7.33Q73.86-4.93 72.64-3.39L72.64-3.39L72.64-3.39Q71.42-1.86 69.44-0.83L69.44-0.83L69.44-0.83Q65.34 1.28 60.93 1.28L60.93 1.28L60.93 1.28Q56.51 1.28 53.92 0.32L53.92 0.32L53.92 0.32Q51.33-0.64 49.60-2.43L49.60-2.43L49.60-2.43Q46.21-5.82 46.21-12.03L46.21-12.03L46.21-12.03Q46.21-21.70 51.46-27.58L51.46-27.58L51.46-27.58Q57.09-33.92 66.88-33.92L66.88-33.92L66.88-33.92Q72.96-33.92 75.97-31.36L75.97-31.36L75.97-31.36Q78.21-29.44 78.21-26.30L78.21-26.30L78.21-26.30Q78.21-15.04 58.75-15.04L58.75-15.04L58.75-15.04Q58.50-13.38 58.50-11.97L58.50-11.97L58.50-11.97Q58.50-9.02 59.81-7.90L59.81-7.90L59.81-7.90Q61.12-6.78 63.55-6.78L63.55-6.78L63.55-6.78Q65.98-6.78 68.58-7.90L68.58-7.90L68.58-7.90Q71.17-9.02 72.26-10.82ZM59.20-17.79L59.20-17.79L59.20-17.79Q63.74-17.79 66.37-20.61L66.37-20.61L66.37-20.61Q68.99-23.30 68.99-27.58L68.99-27.58L68.99-27.58Q68.99-29.06 68.45-29.86L68.45-29.86L68.45-29.86Q67.90-30.66 66.82-30.66L66.82-30.66L66.82-30.66Q65.73-30.66 64.80-30.24L64.80-30.24L64.80-30.24Q63.87-29.82 62.91-28.42L62.91-28.42L62.91-28.42Q60.54-25.22 59.20-17.79ZM79.55-3.07L79.55-3.07L87.49-44.80L100.48-46.08L98.50-36.29L98.50-36.29Q97.79-33.28 96.90-31.17L96.90-31.17L96.90-31.17Q98.30-32.96 101.38-33.66L101.38-33.66L101.38-33.66Q102.27-33.92 103.36-33.92L103.36-33.92L103.36-33.92Q109.31-33.92 112.58-30.30L112.58-30.30L112.58-30.30Q115.84-26.69 115.84-19.71L115.84-19.71L115.84-19.71Q115.84-10.62 110.66-4.93L110.66-4.93L110.66-4.93Q105.09 1.28 94.98 1.28L94.98 1.28L94.98 1.28Q88 1.28 82.75-1.02L82.75-1.02L82.75-1.02Q80.90-1.86 79.55-3.07ZM95.81-22.40L92.42-3.65L92.42-3.65Q93.76-2.50 95.42-2.50L95.42-2.50L95.42-2.50Q97.09-2.50 98.05-3.14L98.05-3.14L98.05-3.14Q99.01-3.78 99.71-5.06L99.71-5.06L99.71-5.06Q101.63-8.51 103.17-19.07L103.17-19.07L103.17-19.07Q103.62-22.08 103.62-25.09L103.62-25.09L103.62-25.09Q103.62-28.10 102.94-29.06L102.94-29.06L102.94-29.06Q102.27-30.02 100.99-30.02L100.99-30.02L100.99-30.02Q97.09-30.02 95.81-22.40L95.81-22.40ZM145.60-10.82L145.60-10.82L145.60-10.82Q147.20-9.73 147.20-7.33L147.20-7.33L147.20-7.33Q147.20-4.93 145.98-3.39L145.98-3.39L145.98-3.39Q144.77-1.86 142.78-0.83L142.78-0.83L142.78-0.83Q138.69 1.28 134.27 1.28L134.27 1.28L134.27 1.28Q129.86 1.28 127.26 0.32L127.26 0.32L127.26 0.32Q124.67-0.64 122.94-2.43L122.94-2.43L122.94-2.43Q119.55-5.82 119.55-12.03L119.55-12.03L119.55-12.03Q119.55-21.70 124.80-27.58L124.80-27.58L124.80-27.58Q130.43-33.92 140.22-33.92L140.22-33.92L140.22-33.92Q146.30-33.92 149.31-31.36L149.31-31.36L149.31-31.36Q151.55-29.44 151.55-26.30L151.55-26.30L151.55-26.30Q151.55-15.04 132.10-15.04L132.10-15.04L132.10-15.04Q131.84-13.38 131.84-11.97L131.84-11.97L131.84-11.97Q131.84-9.02 133.15-7.90L133.15-7.90L133.15-7.90Q134.46-6.78 136.90-6.78L136.90-6.78L136.90-6.78Q139.33-6.78 141.92-7.90L141.92-7.90L141.92-7.90Q144.51-9.02 145.60-10.82ZM132.54-17.79L132.54-17.79L132.54-17.79Q137.09-17.79 139.71-20.61L139.71-20.61L139.71-20.61Q142.34-23.30 142.34-27.58L142.34-27.58L142.34-27.58Q142.34-29.06 141.79-29.86L141.79-29.86L141.79-29.86Q141.25-30.66 140.16-30.66L140.16-30.66L140.16-30.66Q139.07-30.66 138.14-30.24L138.14-30.24L138.14-30.24Q137.22-29.82 136.26-28.42L136.26-28.42L136.26-28.42Q133.89-25.22 132.54-17.79ZM173.76-17.98L173.76-17.98L173.76-17.98Q176.06-22.08 176.06-26.24L176.06-26.24L176.06-26.24Q176.06-28.99 174.08-28.99L174.08-28.99L174.08-28.99Q172.54-28.99 170.94-26.37L170.94-26.37L170.94-26.37Q169.28-23.74 168.77-20.35L168.77-20.35L165.44 0L152.19 1.28L158.72-32.64L169.28-33.92L168.13-27.46L168.13-27.46Q171.26-33.92 178.30-33.92L178.30-33.92L178.30-33.92Q182.02-33.92 184.03-32L184.03-32L184.03-32Q186.05-30.08 186.05-26.14L186.05-26.14L186.05-26.14Q186.05-22.21 183.46-19.71L183.46-19.71L183.46-19.71Q180.86-17.22 176.45-17.22L176.45-17.22L176.45-17.22Q174.53-17.22 173.76-17.98ZM200.13-1.60L199.74-9.47L207.74-15.62L212.74-19.71L212.74-19.71Q215.30-21.89 217.15-23.81L217.15-23.81L217.15-23.81Q220.54-27.20 220.54-30.46L220.54-30.46L220.54-30.46Q220.54-32.38 219.30-33.41L219.30-33.41L219.30-33.41Q218.05-34.43 216.22-34.43L216.22-34.43L216.22-34.43Q214.40-34.43 213.09-34.02L213.09-34.02L213.09-34.02Q211.78-33.60 210.62-32.90L210.62-32.90L210.62-32.90Q208.19-31.30 207.04-28.86L207.04-28.86L207.04-28.86Q205.44-28.93 204.38-30.27L204.38-30.27L204.38-30.27Q203.33-31.62 203.33-33.57L203.33-33.57L203.33-33.57Q203.33-35.52 204.54-37.34L204.54-37.34L204.54-37.34Q205.76-39.17 207.94-40.58L207.94-40.58L207.94-40.58Q212.67-43.52 219.17-43.52L219.17-43.52L219.17-43.52Q225.66-43.52 229.31-40.70L229.31-40.70L229.31-40.70Q232.96-37.89 232.96-33.09L232.96-33.09L232.96-33.09Q232.96-29.50 231.20-26.24L231.20-26.24L231.20-26.24Q229.44-22.98 224.77-19.65L224.77-19.65L217.86-14.78L213.70-12.03L208.38-8.77L210.62-8.51L210.62-8.51Q212.16-8.32 214.85-8.32L214.85-8.32L214.85-8.32Q217.54-8.32 219.78-8.61L219.78-8.61L219.78-8.61Q222.02-8.90 223.94-9.47L223.94-9.47L223.94-9.47Q228.16-10.62 229.50-12.22L229.50-12.22L229.50-12.22Q230.21-11.71 230.75-10.40L230.75-10.40L230.75-10.40Q231.30-9.09 231.30-7.49L231.30-7.49L231.30-7.49Q231.30-2.69 227.65-0.70L227.65-0.70L227.65-0.70Q224.00 1.28 216.51 1.28L216.51 1.28L216.51 1.28Q212.61 1.28 207.42 0.16L207.42 0.16L207.42 0.16Q202.24-0.96 200.13-1.60L200.13-1.60ZM263.23 1.28L263.23 1.28L263.23 1.28Q255.49 1.28 255.49-4.74L255.49-4.74L255.49-4.74Q255.55-6.40 256.06-9.22L256.06-9.22L257.22-15.10L257.22-15.10Q258.94-23.42 258.94-25.28L258.94-25.28L258.94-25.28Q258.94-28.99 256.77-28.99L256.77-28.99L256.77-28.99Q253.12-28.99 251.20-19.46L251.20-19.46L247.42 0L234.56 1.28L241.22-32.70L251.71-33.92L250.69-27.65L250.69-27.65Q253.70-33.92 262.91-33.92L262.91-33.92L262.91-33.92Q267.39-33.92 269.28-32.03L269.28-32.03L269.28-32.03Q271.17-30.14 271.17-25.92L271.17-25.92L271.17-25.92Q271.17-21.95 269.12-12.67L269.12-12.67L269.12-12.67Q268.16-8.51 268.16-6.94L268.16-6.94L268.16-6.94Q268.16-5.38 269.02-4.48L269.02-4.48L269.02-4.48Q269.89-3.58 271.17-3.46L271.17-3.46L271.17-3.46Q270.53-1.28 268.32 0L268.32 0L268.32 0Q266.11 1.28 263.23 1.28ZM296.45-33.92L296.45-33.92L296.45-33.92Q298.75-33.92 300.54-33.41L300.54-33.41L300.54-33.41Q300.61-33.66 300.74-34.37L300.74-34.37L301.06-36.35L301.06-36.35Q301.31-37.63 301.70-39.74L301.70-39.74L302.72-44.80L315.46-46.08L308.35-8.96L308.35-8.96Q308.29-8.58 308.29-7.94L308.29-7.94L308.29-6.91L308.29-6.91Q308.29-5.50 308.99-4.45L308.99-4.45L308.99-4.45Q309.70-3.39 310.85-3.39L310.85-3.39L310.85-3.39Q309.57-0.38 305.66 0.90L305.66 0.90L305.66 0.90Q304.32 1.28 302.43 1.28L302.43 1.28L302.43 1.28Q300.54 1.28 298.82 0.29L298.82 0.29L298.82 0.29Q297.09-0.70 296.58-2.37L296.58-2.37L296.58-2.37Q295.55-0.70 293.50 0.29L293.50 0.29L293.50 0.29Q291.46 1.28 288.48 1.28L288.48 1.28L288.48 1.28Q285.50 1.28 283.04 0.51L283.04 0.51L283.04 0.51Q280.58-0.26 279.04-1.92L279.04-1.92L279.04-1.92Q276.22-5.18 276.22-12.61L276.22-12.61L276.22-12.61Q276.22-22.21 281.86-28.03L281.86-28.03L281.86-28.03Q287.49-33.92 296.45-33.92ZM296-30.08L296-30.08L296-30.08Q293.63-30.08 292.35-27.52L292.35-27.52L292.35-27.52Q291.07-24.96 289.76-18.62L289.76-18.62L289.76-18.62Q288.45-12.29 288.45-6.59L288.45-6.59L288.45-6.59Q288.45-2.69 290.75-2.69L290.75-2.69L290.75-2.69Q292.80-2.69 294.24-4.74L294.24-4.74L294.24-4.74Q295.68-6.78 296.26-10.18L296.26-10.18L299.71-28.93L299.71-28.93Q298.37-30.08 296-30.08ZM331.07-39.68L331.07-39.68L331.07-39.68Q331.97-41.47 333.92-42.46L333.92-42.46L333.92-42.46Q335.87-43.46 338.56-43.46L338.56-43.46L338.56-43.46Q342.78-43.46 345.31-40.42L345.31-40.42L345.31-40.42Q347.84-37.38 347.84-30.72L347.84-30.72L347.84-7.87L362.50-42.18L370.05-42.18L371.78-9.79L371.58-7.94L386.82-42.18L395.58-42.18L375.10 0L361.47 0L360.19-19.46L351.74 0L336.32 0L334.40-30.72L334.40-30.72Q334.21-34.18 333.28-36.45L333.28-36.45L333.28-36.45Q332.35-38.72 331.07-39.68ZM394.53-1.92L394.53-1.92L394.53-1.92Q393.02-3.58 392.35-6.21L392.35-6.21L392.35-6.21Q391.68-8.83 391.68-13.12L391.68-13.12L391.68-13.12Q391.68-17.41 393.15-21.31L393.15-21.31L393.15-21.31Q394.62-25.22 397.31-28.03L397.31-28.03L397.31-28.03Q402.82-33.92 411.90-33.92L411.90-33.92L411.90-33.92Q415.17-33.92 417.54-32.83L417.54-32.83L428.48-33.92L423.74-8.96L423.74-8.96Q423.55-8.19 423.55-6.78L423.55-6.78L423.55-6.78Q423.55-5.38 424.42-4.48L424.42-4.48L424.42-4.48Q425.28-3.58 426.56-3.46L426.56-3.46L426.56-3.46Q425.92-1.28 423.58 0L423.58 0L423.58 0Q421.25 1.28 418.62 1.28L418.62 1.28L418.62 1.28Q416 1.28 414.24 0.29L414.24 0.29L414.24 0.29Q412.48-0.70 411.97-2.37L411.97-2.37L411.97-2.37Q410.94-0.77 408.77 0.26L408.77 0.26L408.77 0.26Q406.59 1.28 403.68 1.28L403.68 1.28L403.68 1.28Q400.77 1.28 398.40 0.51L398.40 0.51L398.40 0.51Q396.03-0.26 394.53-1.92ZM408.03-27.90L408.03-27.90L408.03-27.90Q407.30-26.75 406.66-24.80L406.66-24.80L406.66-24.80Q406.02-22.85 404.96-17.63L404.96-17.63L404.96-17.63Q403.90-12.42 403.90-8.70L403.90-8.70L403.90-8.70Q403.90-4.99 404.48-3.90L404.48-3.90L404.48-3.90Q405.06-2.82 406.08-2.82L406.08-2.82L406.08-2.82Q408.13-2.82 409.63-4.77L409.63-4.77L409.63-4.77Q411.14-6.72 411.71-10.18L411.71-10.18L415.10-28.93L415.10-28.93Q413.76-30.08 412.19-30.08L412.19-30.08L412.19-30.08Q410.62-30.08 409.70-29.57L409.70-29.57L409.70-29.57Q408.77-29.06 408.03-27.90ZM451.97-17.98L451.97-17.98L451.97-17.98Q454.27-22.08 454.27-26.24L454.27-26.24L454.27-26.24Q454.27-28.99 452.29-28.99L452.29-28.99L452.29-28.99Q450.75-28.99 449.15-26.37L449.15-26.37L449.15-26.37Q447.49-23.74 446.98-20.35L446.98-20.35L443.65 0L430.40 1.28L436.93-32.64L447.49-33.92L446.34-27.46L446.34-27.46Q449.47-33.92 456.51-33.92L456.51-33.92L456.51-33.92Q460.22-33.92 462.24-32L462.24-32L462.24-32Q464.26-30.08 464.26-26.14L464.26-26.14L464.26-26.14Q464.26-22.21 461.66-19.71L461.66-19.71L461.66-19.71Q459.07-17.22 454.66-17.22L454.66-17.22L454.66-17.22Q452.74-17.22 451.97-17.98ZM485.44-33.92L485.44-33.92L485.44-33.92Q487.74-33.92 489.54-33.41L489.54-33.41L489.54-33.41Q489.60-33.66 489.73-34.37L489.73-34.37L490.05-36.35L490.05-36.35Q490.30-37.63 490.69-39.74L490.69-39.74L491.71-44.80L504.45-46.08L497.34-8.96L497.34-8.96Q497.28-8.58 497.28-7.94L497.28-7.94L497.28-6.91L497.28-6.91Q497.28-5.50 497.98-4.45L497.98-4.45L497.98-4.45Q498.69-3.39 499.84-3.39L499.84-3.39L499.84-3.39Q498.56-0.38 494.66 0.90L494.66 0.90L494.66 0.90Q493.31 1.28 491.42 1.28L491.42 1.28L491.42 1.28Q489.54 1.28 487.81 0.29L487.81 0.29L487.81 0.29Q486.08-0.70 485.57-2.37L485.57-2.37L485.57-2.37Q484.54-0.70 482.50 0.29L482.50 0.29L482.50 0.29Q480.45 1.28 477.47 1.28L477.47 1.28L477.47 1.28Q474.50 1.28 472.03 0.51L472.03 0.51L472.03 0.51Q469.57-0.26 468.03-1.92L468.03-1.92L468.03-1.92Q465.22-5.18 465.22-12.61L465.22-12.61L465.22-12.61Q465.22-22.21 470.85-28.03L470.85-28.03L470.85-28.03Q476.48-33.92 485.44-33.92ZM484.99-30.08L484.99-30.08L484.99-30.08Q482.62-30.08 481.34-27.52L481.34-27.52L481.34-27.52Q480.06-24.96 478.75-18.62L478.75-18.62L478.75-18.62Q477.44-12.29 477.44-6.59L477.44-6.59L477.44-6.59Q477.44-2.69 479.74-2.69L479.74-2.69L479.74-2.69Q481.79-2.69 483.23-4.74L483.23-4.74L483.23-4.74Q484.67-6.78 485.25-10.18L485.25-10.18L488.70-28.93L488.70-28.93Q487.36-30.08 484.99-30.08Z"></path></g></g><style>text {
  font-size: 64px;
  font-family: Arial Black;
  dominant-baseline: central;
  text-anchor: middle;
}</style></svg>